<svg width="679" height="265" viewBox="0 0 679 265" fill="none" xmlns="http://www.w3.org/2000/svg">
<path d="M125.226 259V207.546H0.576511V153.918L88.2659 5.35293H171.607V166.238H213.64V207.546H171.607V259H125.226ZM44.7836 166.238H125.226V35.0659H118.704L44.7836 160.44V166.238ZM338.921 264.073C308.966 264.073 284.93 255.86 266.813 239.433C248.695 222.765 239.636 197.642 239.636 164.064V100.289C239.636 67.6776 248.695 42.9169 266.813 26.0071C284.93 8.85568 308.966 0.279987 338.921 0.279987C369.117 0.279987 393.153 8.85568 411.029 26.0071C429.147 42.9169 438.205 67.6776 438.205 100.289V164.064C438.205 197.642 429.147 222.765 411.029 239.433C393.153 255.86 369.117 264.073 338.921 264.073ZM338.921 222.765C357.038 222.765 370.325 217.813 378.78 207.908C387.476 198.004 391.824 183.872 391.824 165.513V98.1153C391.824 79.5145 386.993 65.5035 377.33 56.0824C367.909 46.4196 355.106 41.5882 338.921 41.5882C322.253 41.5882 309.208 46.5404 299.787 56.4447C290.607 66.349 286.017 80.2392 286.017 98.1153V165.513C286.017 184.597 290.365 198.97 299.062 208.633C308 218.054 321.286 222.765 338.921 222.765ZM590.552 259V207.546H465.903V153.918L553.592 5.35293H636.933V166.238H678.966V207.546H636.933V259H590.552ZM510.11 166.238H590.552V35.0659H584.03L510.11 160.44V166.238Z" fill="#0B2330"/>
</svg>
