<svg width="138" height="22" viewBox="0 0 138 22" fill="none" xmlns="http://www.w3.org/2000/svg">
<path fill-rule="evenodd" clip-rule="evenodd" d="M45.6671 3.22066C45.6671 3.27056 46.4638 7.09927 47.4375 11.7289C48.4112 16.3587 49.2079 20.1611 49.2079 20.1789C49.2079 20.1966 50.2022 20.2112 51.4174 20.2112H53.627L54.551 16.075C55.0593 13.8002 55.5845 11.4458 55.7181 10.8433C55.8518 10.2408 55.9891 9.74777 56.0232 9.74777C56.0573 9.74777 56.1105 9.87861 56.1415 10.0384C56.1725 10.1982 56.6945 12.5525 57.3016 15.2701L58.4055 20.2112L64.0433 20.21L69.6809 20.2088L68.8153 19.7852C66.3472 18.5775 64.6666 16.7143 63.8191 14.2463C63.4478 13.1651 63.3394 12.3393 63.3959 11.0242C63.4493 9.78461 63.6294 9.00621 64.0985 7.98723C64.9729 6.08754 66.8662 4.33604 69.0529 3.40399L69.6809 3.13632L66.2143 3.1331C62.9885 3.13006 62.7447 3.14079 62.7038 3.28639C62.6798 3.37251 62.2221 5.75692 61.6869 8.58517C61.1517 11.4134 60.6873 13.7569 60.655 13.7928C60.6227 13.8289 60.1091 11.4444 59.5137 8.49404L58.4311 3.12988H56.18C54.9419 3.12988 53.929 3.15099 53.929 3.17683C53.929 3.30481 51.6466 13.6606 51.5873 13.8015C51.5435 13.9059 51.1138 12.0763 50.4006 8.74865C49.7857 5.8797 49.2614 3.44182 49.2354 3.3311C49.1885 3.13096 49.1789 3.12988 47.4277 3.12988C46.2976 3.12988 45.6671 3.16235 45.6671 3.22066ZM74.7197 3.38315C77.6772 4.62839 79.7235 6.98909 80.3073 9.82915C80.5341 10.9329 80.4549 12.7262 80.1312 13.8169C79.3463 16.461 77.5975 18.4955 75.0143 19.7697L74.1296 20.2061L79.7671 20.2086L85.4046 20.2112L86.2789 16.2986C86.7598 14.1467 87.2846 11.7923 87.445 11.0669C87.6054 10.3414 87.7621 9.74777 87.7931 9.74777C87.824 9.74777 87.9588 10.2407 88.0924 10.8433C88.226 11.4458 88.7513 13.8002 89.2595 16.075L90.1836 20.2112H92.3928C93.6085 20.2112 94.6026 20.1862 94.6026 20.1557C94.6026 20.1252 95.0929 17.2677 95.6921 13.8058C96.2913 10.3438 96.7816 7.44707 96.7816 7.36846C96.7816 7.24022 96.6018 7.23217 95.0339 7.29003C94.0724 7.32544 93.2789 7.35996 93.2708 7.36676C93.2617 7.37356 93.0383 8.837 92.7741 10.6188C92.5099 12.4006 92.2666 13.8289 92.2339 13.7929C92.2022 13.757 91.6765 11.4335 91.0655 8.62988C90.4557 5.82622 89.9352 3.44182 89.9092 3.3311L89.8619 3.12988H87.6173H85.3726L84.2944 8.49502C83.7014 11.4459 83.1891 13.8303 83.156 13.7938C83.1229 13.7573 82.6789 11.5342 82.1693 8.85346C81.6597 6.17277 81.2017 3.78836 81.1514 3.55468L81.0599 3.12988L77.5948 3.1323L74.1296 3.13471L74.7197 3.38315ZM70.5709 5.8171C68.8976 6.14281 67.2332 7.41613 66.4677 8.95631C66.2636 9.36697 66.0348 9.94291 65.9595 10.2361C65.7855 10.9124 65.7852 12.3085 65.9587 13.0336C66.7645 16.4003 70.3838 18.3804 73.7366 17.2888C75.5323 16.7042 76.9651 15.2882 77.5752 13.495C77.7892 12.866 77.8325 12.5836 77.8411 11.76C77.8529 10.6445 77.7376 10.0819 77.3096 9.16647C76.537 7.51396 75.0102 6.26605 73.2671 5.86262C72.638 5.71703 71.2093 5.69288 70.5709 5.8171Z" fill="#1CB3E9"/>
<path fill-rule="evenodd" clip-rule="evenodd" d="M133.12 3.1093C132.513 5.86484 132.239 7.79771 132.099 10.3397C132.013 11.8643 132.088 14.4144 132.245 15.3831L132.304 15.7414H133.559H134.814L134.859 15.4508C134.883 15.2909 134.969 14.4558 135.05 13.5951C135.442 9.39923 136.064 5.98441 136.879 3.55082C137.056 3.01897 137.187 2.57316 137.169 2.5601C137.135 2.53408 133.535 1.7859 133.459 1.78858C133.432 1.78948 133.28 2.38374 133.12 3.1093ZM0.817139 3.20892C0.817139 3.30515 4.25824 19.8413 4.32306 20.0564C4.36628 20.1999 4.55349 20.2129 6.57174 20.2129H8.77338L9.56933 16.6134C10.9709 10.2749 11.1153 9.64114 11.1406 9.71841C11.1542 9.76008 11.6559 12.0479 12.2553 14.8024C12.8548 17.5568 13.3667 19.901 13.3928 20.0117L13.4403 20.2129H15.6629C16.8854 20.2129 17.8856 20.1922 17.8856 20.167C17.8856 20.1417 18.6822 16.335 19.656 11.7079C20.6297 7.08074 21.4263 3.25811 21.4263 3.21322C21.4263 3.1668 20.6442 3.13165 19.6106 3.13165C18.6119 3.13165 17.7948 3.15464 17.7948 3.18263C17.7948 3.32921 15.7782 13.6645 15.7227 13.8028C15.6826 13.9024 15.2574 12.0223 14.6303 8.97354C14.0655 6.22775 13.5625 3.79013 13.5126 3.55645L13.4218 3.13165H11.3474C9.45094 3.13165 9.26855 3.14507 9.22343 3.28816C9.19628 3.37428 8.64147 5.73856 7.99041 8.54222C7.33945 11.3459 6.77638 13.7311 6.73934 13.8428C6.69349 13.9806 6.32452 12.3282 5.59103 8.70052C4.99654 5.76057 4.49193 3.30497 4.46969 3.24344C4.43918 3.15911 3.98596 3.13165 2.62321 3.13165C1.62989 3.13165 0.817139 3.16644 0.817139 3.20892ZM21.9711 11.6723V20.2129L31.4813 20.2114C41.9542 20.2097 41.7068 20.2218 42.7852 19.6583C43.9302 19.06 44.9411 17.7033 45.2168 16.3947C45.3732 15.6527 45.2859 14.2184 45.0438 13.5503C44.7828 12.8307 44.1195 11.8922 43.5472 11.4329C43.2901 11.2265 43.0435 11.0276 42.9994 10.9907C42.9552 10.954 43.1248 10.7265 43.3763 10.4852C44.1856 9.70866 44.5777 8.67154 44.5777 7.30665C44.5777 5.54316 43.8455 4.13936 42.5598 3.43769L42.081 3.17637L37.8365 3.1507L33.5921 3.12495V9.52265V15.9203H35.3625H37.1329V14.5341V13.1479H38.9062C41.1216 13.1479 41.4426 13.2483 41.8712 14.0756C42.2401 14.7876 42.0241 15.8811 41.4149 16.3861C40.8959 16.8163 40.6919 16.826 32.8204 16.797L25.4665 16.7699L25.4417 15.1837L25.4169 13.5977L28.2108 13.574L31.0046 13.5503L31.0292 11.7394L31.0538 9.92839H28.2829H25.5119V8.1845V6.4406H28.9619H32.4119V4.78613V3.13165H27.1915H21.9711V11.6723ZM93.8763 3.16895C93.8763 3.18943 93.7747 3.84344 93.6503 4.6222C93.5259 5.40096 93.4242 6.08806 93.4233 6.14914C93.4224 6.2358 94.4483 6.26522 98.099 6.28329L102.776 6.30645L99.8839 11.3593C98.2933 14.1384 96.8406 16.6536 96.6563 16.9487C96.1152 17.8148 95.7893 19.0983 95.9191 19.8535L95.9809 20.2129H107.185H118.389V18.5142V16.8155L109.584 16.7927L100.777 16.7699L103.863 11.4487L106.949 6.12759L106.95 4.62962V3.13165H100.413C96.8179 3.13165 93.8763 3.14847 93.8763 3.16895ZM108.766 9.57067V16.0097H110.4H112.034V14.7577V13.5056H114.758H117.482V11.7617V10.0178H114.803H112.125V8.22761V6.43729L119.054 6.46135L125.984 6.48531L126.32 6.70889C126.831 7.04855 127.138 7.72849 127.088 8.40969C127.027 9.23557 126.612 9.6796 125.753 9.83816C125.485 9.88779 124.003 9.92839 122.461 9.92839H119.659L119.682 15.0483L119.706 20.1682L121.317 20.1926L122.929 20.2171V16.8613V13.5056H123.693H124.458L125.27 15.5402C125.717 16.6591 126.32 18.1683 126.608 18.8938L127.133 20.2129H128.98C129.996 20.2129 130.828 20.1963 130.828 20.176C130.828 20.1557 130.139 18.5579 129.3 16.6254L127.771 13.1116L128.291 12.7347C129.164 12.1008 129.945 10.8561 130.239 9.62737C130.408 8.92436 130.409 7.42926 130.242 6.81004C129.754 5.00496 128.29 3.71626 126.257 3.30309C125.477 3.14453 124.909 3.13389 117.096 3.13282L108.766 3.13165V9.57067ZM40.7216 6.21782C41.8398 6.89938 41.9187 8.49939 40.8784 9.39905C40.3224 9.88001 40.1005 9.92839 38.4523 9.92839H36.9513V7.90914V5.88979L38.6157 5.9193L40.2801 5.94873L40.7216 6.21782ZM132.029 18.6255L132.053 20.1682L133.438 20.1929L134.822 20.2176V18.6502V17.0829H133.413H132.003L132.029 18.6255Z" fill="#F47F22"/>
</svg>
