<svg width="48" height="48" viewBox="0 0 48 48" fill="none" xmlns="http://www.w3.org/2000/svg">
<path d="M12 35.9489C12.2574 38.5658 12.8391 40.3272 14.1538 41.6419C16.5119 44 20.3072 44 27.8979 44C35.4885 44 39.2838 44 41.6419 41.6419C44 39.2838 44 35.4885 44 27.8979C44 20.3072 44 16.5119 41.6419 14.1538C40.3272 12.8391 38.5658 12.2574 35.9489 12" stroke="#141B34" stroke-width="1.5"/>
<path d="M4 20C4 12.4575 4 8.68629 6.34315 6.34315C8.68629 4 12.4575 4 20 4C27.5425 4 31.3137 4 33.6569 6.34315C36 8.68629 36 12.4575 36 20C36 27.5425 36 31.3137 33.6569 33.6569C31.3137 36 27.5425 36 20 36C12.4575 36 8.68629 36 6.34315 33.6569C4 31.3137 4 27.5425 4 20Z" fill="#A3FFF4" stroke="#141B34" stroke-width="1.5"/>
<path d="M4 22.237C5.23804 22.0797 6.48968 22.0019 7.74343 22.0047C13.0473 21.9066 18.2213 23.3527 22.3421 26.0848C26.164 28.6187 28.8495 32.106 30 36" stroke="#141B34" stroke-width="1.5" stroke-linejoin="round"/>
<path d="M25.9996 14H26.0176" stroke="#141B34" stroke-width="2" stroke-linecap="round" stroke-linejoin="round"/>
</svg>
