<svg width="48" height="48" viewBox="0 0 48 48" fill="none" xmlns="http://www.w3.org/2000/svg">
<path d="M4.11405 39.7481L8.00977 9.40126C8.36579 6.62795 9.06914 6 11.9125 6C14.7558 6 15.4592 6.62795 15.8152 9.40126L20 42H6.11982C5.05043 42 4.51573 42 4.21386 41.6611C3.91198 41.3221 3.97933 40.7974 4.11405 39.7481Z" fill="#BDB7FF" stroke="#141B34" stroke-width="1.5" stroke-linecap="round" stroke-linejoin="round"/>
<path d="M20.3074 42H42C42.9428 42 43.4142 42 43.7071 41.7071C44 41.4142 44 40.9428 44 40V14L35.2804 21.2664C33.8612 22.449 33.1517 23.0403 32.5758 22.7705C32 22.5008 32 21.5772 32 19.7299V14L23.1039 20.4699C22.0608 21.2285 21.5392 21.6079 20.9362 21.8039C20.3333 22 19.6884 22 18.3985 22H18" stroke="#141B34" stroke-width="1.5" stroke-linecap="round" stroke-linejoin="round"/>
<path d="M8 12L16 12" stroke="#141B34" stroke-width="1.5" stroke-linecap="round" stroke-linejoin="round"/>
<path d="M24 30L28 30" stroke="#141B34" stroke-width="1.5" stroke-linecap="round" stroke-linejoin="round"/>
<path d="M34 30H38" stroke="#141B34" stroke-width="1.5" stroke-linecap="round" stroke-linejoin="round"/>
</svg>
