<svg width="48" height="48" viewBox="0 0 48 48" fill="none" xmlns="http://www.w3.org/2000/svg">
<path d="M24 43C15.0433 43 10.565 43 7.78249 40.2175C5 37.435 5 32.9567 5 24C5 15.0433 5 10.565 7.78248 7.78249C10.565 5 15.0433 5 24 5C32.9567 5 37.435 5 40.2175 7.78248C43 10.565 43 15.0433 43 24C43 32.9567 43 37.435 40.2175 40.2175C37.435 43 32.9567 43 24 43Z" fill="#EDEDED" stroke="#141B34" stroke-width="2"/>
<path d="M14 43L14 5" stroke="#141B34" stroke-width="2" stroke-linejoin="round"/>
<path d="M34 43L34 5" stroke="#141B34" stroke-width="2" stroke-linejoin="round"/>
<path d="M34 24L14 24" stroke="#141B34" stroke-width="2" stroke-linecap="round" stroke-linejoin="round"/>
<path d="M14 32L6 32M14 16L6 16" stroke="#141B34" stroke-width="2" stroke-linecap="round" stroke-linejoin="round"/>
<path d="M42 32L34 32M42 16L34 16" stroke="#141B34" stroke-width="2" stroke-linecap="round" stroke-linejoin="round"/>
</svg>
