<svg width="48" height="48" viewBox="0 0 48 48" fill="none" xmlns="http://www.w3.org/2000/svg">
<path d="M25 29.8625C25 29.3103 24.5523 28.8625 24 28.8625C23.4477 28.8625 23 29.3103 23 29.8625H25ZM16.5071 41.7341L16.193 42.6835L16.193 42.6835L16.5071 41.7341ZM11.9611 40.5791L11.7792 41.5624L11.9611 40.5791ZM5.44157 10.8156L4.80165 10.0472L4.80165 10.0472L5.44157 10.8156ZM31.4929 41.7341L31.1788 40.7847L31.4929 41.7341ZM36.0389 40.5791L36.2208 41.5624L36.0389 40.5791ZM42.5584 10.8156L43.1983 10.0472V10.0472L42.5584 10.8156ZM23 42.886C23 43.4383 23.4477 43.886 24 43.886C24.5523 43.886 25 43.4383 25 42.886H23ZM38.8889 9.0735C38.3401 9.13484 37.9448 9.62951 38.0062 10.1784C38.0675 10.7272 38.5622 11.1225 39.1111 11.0611L38.8889 9.0735ZM8.88893 11.0611C9.4378 11.1225 9.93247 10.7272 9.99381 10.1784C10.0552 9.62951 9.65994 9.13484 9.11107 9.0735L8.88893 11.0611ZM16.8212 40.7847C15.4332 40.3255 13.8742 39.9161 12.1431 39.5958L11.7792 41.5624C13.4217 41.8663 14.8924 42.2532 16.193 42.6835L16.8212 40.7847ZM3 17.8642V31.8755H5V17.8642H3ZM12.1431 39.5958C10.0851 39.215 8.61539 38.9419 7.5399 38.6312C6.45579 38.3181 5.95887 38.0147 5.69415 37.6963L4.15624 38.9749C4.81672 39.7693 5.80085 40.2107 6.98495 40.5527C8.17766 40.8972 9.76335 41.1894 11.7792 41.5624L12.1431 39.5958ZM3 31.8755C3 33.6342 2.99851 35.0374 3.12189 36.1366C3.24677 37.2491 3.5123 38.2003 4.15624 38.9749L5.69415 37.6963C5.41289 37.358 5.21583 36.8616 5.10941 35.9135C5.00149 34.952 5 33.6816 5 31.8755H3ZM5 17.8642C5 15.8812 5.00299 14.5137 5.1676 13.4862C5.32436 12.5078 5.60763 11.9787 6.08148 11.5841L4.80165 10.0472C3.83394 10.853 3.39642 11.8988 3.19279 13.1699C2.99701 14.3919 3 15.9484 3 17.8642H5ZM31.807 42.6835C33.1076 42.2532 34.5783 41.8663 36.2208 41.5624L35.8569 39.5958C34.1258 39.9161 32.5668 40.3255 31.1788 40.7847L31.807 42.6835ZM43 17.8642V31.8755H45V17.8642H43ZM36.2208 41.5624C38.2367 41.1894 39.8223 40.8972 41.0151 40.5527C42.1992 40.2107 43.1833 39.7693 43.8438 38.9749L42.3059 37.6963C42.0411 38.0147 41.5442 38.3181 40.4601 38.6312C39.3846 38.9419 37.9149 39.215 35.8569 39.5958L36.2208 41.5624ZM43 31.8755C43 33.6816 42.9985 34.952 42.8906 35.9135C42.7842 36.8616 42.5871 37.358 42.3059 37.6963L43.8438 38.9749C44.4877 38.2003 44.7532 37.2491 44.8781 36.1366C45.0015 35.0374 45 33.6342 45 31.8755H43ZM45 17.8642C45 15.9484 45.003 14.3919 44.8072 13.1699C44.6036 11.8988 44.1661 10.853 43.1983 10.0472L41.9185 11.5841C42.3924 11.9787 42.6756 12.5078 42.8324 13.4862C42.997 14.5137 43 15.8812 43 17.8642H45ZM16.193 42.6835C18.4714 43.4373 20.1952 44.0076 21.429 44.3889C22.0454 44.5794 22.554 44.7273 22.956 44.8283C23.3285 44.9218 23.7012 45 24 45V43C24.0045 43 23.9641 42.9993 23.8552 42.98C23.7533 42.9619 23.6179 42.9324 23.4432 42.8885C23.0934 42.8006 22.625 42.6652 22.0195 42.4781C20.8093 42.1041 19.1086 41.5415 16.8212 40.7847L16.193 42.6835ZM31.1788 40.7847C28.8914 41.5415 27.1907 42.1041 25.9805 42.4781C25.375 42.6652 24.9066 42.8006 24.5568 42.8885C24.3821 42.9324 24.2467 42.9619 24.1448 42.98C24.0359 42.9993 23.9955 43 24 43V45C24.2988 45 24.6715 44.9218 25.044 44.8283C25.446 44.7273 25.9545 44.5795 26.571 44.3889C27.8048 44.0076 29.5286 43.4373 31.807 42.6835L31.1788 40.7847ZM23 29.8625V42.886H25V29.8625H23ZM39.1111 11.0611C40.5677 10.8983 41.2836 11.0554 41.9185 11.5841L43.1983 10.0472C41.9458 9.00414 40.5591 8.88684 38.8889 9.0735L39.1111 11.0611ZM9.11107 9.0735C7.44093 8.88684 6.05421 9.00414 4.80165 10.0472L6.08148 11.5841C6.71636 11.0554 7.4323 10.8983 8.88893 11.0611L9.11107 9.0735Z" fill="#141B34"/>
<path d="M34 14C34 19.5228 29.5228 24 24 24C18.4772 24 14 19.5228 14 14C14 8.47715 18.4772 4 24 4C29.5228 4 34 8.47715 34 14Z" fill="#5EDC89"/>
<path d="M28 14C28 19.5228 26.2091 24 24 24C21.7909 24 20 19.5228 20 14C20 8.47715 21.7909 4 24 4C26.2091 4 28 8.47715 28 14Z" fill="#5EDC89"/>
<path d="M24 24C29.5228 24 34 19.5228 34 14C34 8.47715 29.5228 4 24 4M24 24C18.4772 24 14 19.5228 14 14C14 8.47715 18.4772 4 24 4M24 24C26.2091 24 28 19.5228 28 14C28 8.47715 26.2091 4 24 4M24 24C21.7909 24 20 19.5228 20 14C20 8.47715 21.7909 4 24 4" stroke="#141B34" stroke-width="2" stroke-linecap="round" stroke-linejoin="round"/>
</svg>
