<svg width="48" height="48" viewBox="0 0 48 48" fill="none" xmlns="http://www.w3.org/2000/svg">
<circle cx="34" cy="38" r="4" fill="#F5821F" stroke="#141B34" stroke-width="2"/>
<circle cx="14" cy="38" r="4" fill="#F5821F" stroke="#141B34" stroke-width="2"/>
<path d="M24 24L12 6L16 26" stroke="#141B34" stroke-width="2" stroke-linecap="round" stroke-linejoin="round"/>
<path d="M43 27C43.5523 27 44 26.5523 44 26C44 25.4477 43.5523 25 43 25V27ZM4 26V25C3.44772 25 3 25.4477 3 26H4ZM4 36H3C3 36.3281 3.16091 36.6353 3.43061 36.8221L4 36ZM18 37C17.4477 37 17 37.4477 17 38C17 38.5523 17.4477 39 18 39V37ZM30 39C30.5523 39 31 38.5523 31 38C31 37.4477 30.5523 37 30 37V39ZM6.18004 37.51L5.61065 38.332C5.6234 38.3409 5.63636 38.3494 5.64951 38.3576L6.18004 37.51ZM6.97252 37.9381L6.68647 38.8963L6.68647 38.8963L6.97252 37.9381ZM10 39C10.5523 39 11 38.5523 11 38C11 37.4477 10.5523 37 10 37L10 39ZM43 25H4V27H43V25ZM3 26V36H5V26H3ZM18 39H30V37H18V39ZM3.43061 36.8221L5.61065 38.332L6.74944 36.6879L4.56939 35.1779L3.43061 36.8221ZM5.64951 38.3576C5.99096 38.5714 6.31849 38.7864 6.68647 38.8963L7.25858 36.9798C7.21158 36.9658 7.14906 36.9368 6.71058 36.6623L5.64951 38.3576ZM10 38C10 37 10 37 9.99999 37C9.99997 37 9.99995 37 9.99991 37C9.99984 37 9.99973 37 9.99957 37C9.99926 37 9.99878 37 9.99813 37C9.99683 37 9.99487 37 9.99226 37C9.98704 37 9.97923 37 9.96901 37C9.94856 37 9.91845 36.9999 9.87998 36.9999C9.80305 36.9998 9.69278 36.9995 9.55975 36.999C9.2935 36.9981 8.93701 36.9962 8.57466 36.9923C8.21113 36.9885 7.8467 36.9827 7.56276 36.9743C7.41987 36.9701 7.30475 36.9654 7.2232 36.9604C7.18178 36.9578 7.15736 36.9557 7.14628 36.9545C7.11023 36.9507 7.17227 36.9541 7.25857 36.9798L6.68647 38.8963C6.79871 38.9298 6.90709 38.9404 6.93515 38.9434C6.98817 38.949 7.04562 38.9532 7.10116 38.9566C7.21355 38.9635 7.35278 38.969 7.50344 38.9734C7.80661 38.9824 8.18608 38.9883 8.55348 38.9922C8.92206 38.9961 9.28354 38.9981 9.55252 38.999C9.68711 38.9995 9.79877 38.9998 9.87686 38.9999C9.91591 38.9999 9.94659 39 9.96755 39C9.97803 39 9.98609 39 9.99155 39C9.99428 39 9.99637 39 9.99778 39C9.99849 39 9.99903 39 9.9994 39C9.99958 39 9.99973 39 9.99983 39C9.99988 39 9.99992 39 9.99995 39C9.99998 39 10 39 10 38Z" fill="#141B34"/>
<path d="M38 38C43.3667 38 44 36.1439 44 31.025C44 28.575 44 27.35 43.5197 26.3156C43.0183 25.2355 42.1148 24.5628 40.2146 23.1862C38.3273 21.8189 36.9852 20.2821 35.7065 18.1648C33.883 15.1453 32.9713 13.6355 31.6039 12.8178C30.2365 12 28.6236 12 25.3979 12H24" stroke="#141B34" stroke-width="2" stroke-linecap="round" stroke-linejoin="round"/>
<path d="M24 12L24 26" stroke="#141B34" stroke-width="2" stroke-linecap="round" stroke-linejoin="round"/>
<path d="M12 6H7.66165C7.28342 6 6.96439 6.32196 6.91753 6.75095L6.25055 12.8571C7.49301 12.8571 8.50022 14.0084 8.50022 15.4286C8.50022 16.8487 7.49301 18 6.25055 18C5.27103 18 4.30883 17.2845 4 16.2857" stroke="#141B34" stroke-width="2" stroke-linecap="round" stroke-linejoin="round"/>
</svg>
