<svg width="48" height="48" viewBox="0 0 48 48" fill="none" xmlns="http://www.w3.org/2000/svg">
<path d="M41.5478 36C43.0464 36 44.2384 35.0569 45.3087 33.7383C47.4996 31.0389 43.9024 28.8817 42.5305 27.8252C41.1358 26.7512 39.5786 26.1428 37.9998 26M35.9998 22C38.7612 22 40.9998 19.7614 40.9998 17C40.9998 14.2386 38.7612 12 35.9998 12" stroke="#141B34" stroke-width="2" stroke-linecap="round"/>
<path d="M6.45167 36C4.95307 36 3.76109 35.0569 2.69085 33.7383C0.499933 31.0389 4.0971 28.8817 5.46905 27.8252C6.86371 26.7512 8.42092 26.1428 9.99976 26M10.9998 22C8.23833 22 5.99976 19.7614 5.99976 17C5.99976 14.2386 8.23833 12 10.9998 12" stroke="#141B34" stroke-width="2" stroke-linecap="round"/>
<path d="M16.1674 30.2224C14.1238 31.486 8.76573 34.0662 12.0292 37.2948C13.6233 38.872 15.3988 40 17.631 40H30.3685C32.6007 40 34.3762 38.872 35.9704 37.2948C39.2338 34.0662 33.8757 31.486 31.8321 30.2224C27.04 27.2592 20.9595 27.2592 16.1674 30.2224Z" stroke="#141B34" stroke-width="2" stroke-linecap="round" stroke-linejoin="round"/>
<path d="M30.9998 15C30.9998 18.866 27.8657 22 23.9998 22C20.1338 22 16.9998 18.866 16.9998 15C16.9998 11.134 20.1338 8 23.9998 8C27.8657 8 30.9998 11.134 30.9998 15Z" fill="#1DB4E9" stroke="#141B34" stroke-width="2"/>
</svg>
